HIERARCHY
ROOT Hips
{
	OFFSET -0.001795 -0.223333 0.028219
	CHANNELS 6 Xposition Yposition Zposition Zrotation Yrotation Xrotation 
	JOINT LeftUpLeg
	{
		OFFSET 0.069520 -0.091406 -0.006815
		CHANNELS 3 Zrotation Yrotation Xrotation
		JOINT LeftLeg
		{
			OFFSET 0.034277 -0.375199 -0.004496
			CHANNELS 3 Zrotation Yrotation Xrotation
			JOINT LeftFoot
			{
				OFFSET -0.013596 -0.397961 -0.043693
				CHANNELS 3 Zrotation Yrotation Xrotation
				JOINT LeftToe
				{
					OFFSET 0.026358 -0.055791 0.119288
					CHANNELS 3 Zrotation Yrotation Xrotation
					End Site
					{
						OFFSET 0.000000 0.000000 0.000000
					}
				}
			}
		}
	}
	JOINT RightUpLeg
	{
		OFFSET -0.067670 -0.090522 -0.004320
		CHANNELS 3 Zrotation Yrotation Xrotation
		JOINT RightLeg
		{
			OFFSET -0.038290 -0.382569 -0.008850
			CHANNELS 3 Zrotation Yrotation Xrotation
			JOINT RightFoot
			{
				OFFSET 0.015774 -0.398415 -0.042312
				CHANNELS 3 Zrotation Yrotation Xrotation
				JOINT RightToe
				{
					OFFSET -0.025372 -0.048144 0.123348
					CHANNELS 3 Zrotation Yrotation Xrotation
					End Site
					{
						OFFSET 0.000000 0.000000 0.000000
					}
				}
			}
		}
	}
	JOINT Spine
	{
		OFFSET -0.002533 0.108963 -0.026696
		CHANNELS 3 Zrotation Yrotation Xrotation
		JOINT Spine1
		{
			OFFSET 0.005487 0.135180 0.001092
			CHANNELS 3 Zrotation Yrotation Xrotation
			JOINT Spine2
			{
				OFFSET 0.001457 0.052922 0.025425
				CHANNELS 3 Zrotation Yrotation Xrotation
				JOINT Neck
				{
					OFFSET -0.002778 0.213870 -0.042857
					CHANNELS 3 Zrotation Yrotation Xrotation
					JOINT Head
					{
						OFFSET 0.005152 0.064970 0.051349
						CHANNELS 3 Zrotation Yrotation Xrotation
						End Site
						{
							OFFSET 0.000000 0.000000 0.000000
						}
					}
				}
				JOINT LeftShoulder
				{
					OFFSET 0.078845 0.121749 -0.034090
					CHANNELS 3 Zrotation Yrotation Xrotation
					JOINT LeftArm
					{
						OFFSET 0.090977 0.030469 -0.008868
						CHANNELS 3 Zrotation Yrotation Xrotation
						JOINT LeftForeArm
						{
							OFFSET 0.259612 -0.012772 -0.027456
							CHANNELS 3 Zrotation Yrotation Xrotation
							JOINT LeftHand
							{
								OFFSET 0.249234 0.008986 -0.001171
								CHANNELS 3 Zrotation Yrotation Xrotation
								End Site
								{
									OFFSET 0.000000 0.000000 0.000000
								}
							}
						}
					}
				}
				JOINT RightShoulder
				{
					OFFSET -0.081759 0.118833 -0.038615
					CHANNELS 3 Zrotation Yrotation Xrotation
					JOINT RightArm
					{
						OFFSET -0.096012 0.032551 -0.009143
						CHANNELS 3 Zrotation Yrotation Xrotation
						JOINT RightForeArm
						{
							OFFSET -0.253742 -0.013329 -0.021401
							CHANNELS 3 Zrotation Yrotation Xrotation
							JOINT RightHand
							{
								OFFSET -0.255298 0.007772 -0.005559
								CHANNELS 3 Zrotation Yrotation Xrotation
								End Site
								{
									OFFSET 0.000000 0.000000 0.000000
								}
							}
						}
					}
				}
			}
		}
	}
}
MOTION
Frames: 13
Frame Time: 0.050000
0.000000 0.951238 0.000000 -0.149349 3.666409 -3.068511 1.217778 0.622617 8.554396 0.181655 0.008658 -0.750220 0.137871 2.492727 4.666051 0.000000 0.000000 0.000000 0.542078 -0.680055 6.118306 0.083913 0.043337 1.422029 -0.279173 -2.527962 4.345351 0.000000 0.000000 0.000000 0.888190 -0.133918 2.838895 0.217252 -0.165406 1.460470 -0.866562 0.132994 5.632400 2.968793 -1.411570 -7.788799 0.000000 0.000000 0.000000 -22.368890 3.768429 -4.911414 -46.916662 -0.036162 -5.499601 -3.744802 -20.764350 1.391441 0.000000 0.000000 0.000000 22.041286 -4.473541 -4.015311 52.860158 1.972155 -4.558829 1.147423 21.107074 0.998611 0.000000 0.000000 0.000000 
0.000250 0.950225 -0.000346 -0.247025 4.110856 -3.169237 1.698858 0.588673 8.791217 -0.246525 0.077229 -1.586099 0.341790 2.528659 3.811059 0.000000 0.000000 0.000000 0.266742 -0.665778 6.109091 1.052737 -0.093623 1.011855 -0.287811 -2.181359 3.443819 0.000000 0.000000 0.000000 0.749264 -0.136111 2.951795 -0.053325 -0.058582 2.091016 -0.992168 -0.154710 4.890559 2.683193 -1.101392 -8.647249 0.000000 0.000000 0.000000 -21.952883 4.444637 -5.216274 -48.673352 -0.436395 -5.529145 -1.904678 -20.711252 1.055100 0.000000 0.000000 0.000000 22.575362 -4.679894 -4.249425 53.500776 0.796050 -5.045205 0.210429 22.769968 0.909966 0.000000 0.000000 0.000000 
0.000389 0.949632 -0.000660 -0.138440 3.992921 -2.922358 1.664215 0.554829 8.210160 0.117244 0.024383 -1.011767 -0.246879 0.951865 2.893935 0.000000 0.000000 0.000000 0.463080 -0.661888 5.976078 0.504073 -0.039473 0.560547 -0.467689 -2.313864 2.670671 0.000000 0.000000 0.000000 0.889861 -0.147984 3.111990 -0.055848 0.016609 0.347377 -1.268518 -0.775761 5.997253 2.325722 -0.881513 -8.865699 0.000000 0.000000 0.000000 -21.666410 4.193764 -4.833435 -49.384707 -0.623111 -5.680895 -2.399447 -20.565858 1.174125 0.000000 0.000000 0.000000 22.283785 -3.979773 -3.938486 53.390458 0.955715 -5.031910 0.431564 22.425866 0.916302 0.000000 0.000000 0.000000 
0.000283 0.949992 -0.000871 -0.154349 4.307473 -3.767798 1.511196 0.633941 9.237812 0.604204 -0.017580 -1.116061 -0.435138 0.268606 2.247357 0.000000 0.000000 0.000000 0.499428 -0.778464 6.966901 0.684584 -0.056336 0.742290 -0.123138 -1.424380 2.550288 0.000000 0.000000 0.000000 0.562927 -0.187139 4.133798 -0.277646 0.079057 1.526446 -0.696508 -1.461242 4.686570 2.008808 -0.790225 -7.948658 0.000000 0.000000 0.000000 -22.616859 5.124768 -5.378398 -49.317996 -1.202850 -5.374227 -2.064387 -20.450737 1.122526 0.000000 0.000000 0.000000 22.093763 -3.753864 -4.015685 53.127791 0.954558 -4.856010 0.893682 22.216748 0.938791 0.000000 0.000000 0.000000 
-0.000023 0.950374 -0.001093 -0.150678 4.596737 -3.939844 1.569541 0.636126 9.436630 0.616210 -0.006403 -1.418302 -0.701355 0.012546 2.770789 0.000000 0.000000 0.000000 0.707800 -0.810912 7.104215 0.190058 0.004609 0.742418 -0.173539 -1.290749 1.949015 0.000000 0.000000 0.000000 0.346861 -0.217142 4.914025 0.380281 -0.254160 1.539616 -1.281643 -1.121882 4.004220 2.310493 -1.015150 -7.422869 0.000000 0.000000 0.000000 -22.941823 4.879610 -5.486051 -48.804867 -1.421246 -5.125691 -2.873632 -20.931761 1.260455 0.000000 0.000000 0.000000 21.707125 -4.440657 -4.211142 53.180553 1.279295 -4.684337 1.210791 21.389236 0.970969 0.000000 0.000000 0.000000 
-0.000477 0.950410 -0.001099 -0.255993 4.931822 -3.963554 1.776277 0.616605 9.550114 0.799710 -0.017333 -1.548222 -0.993262 -0.557766 2.767574 0.000000 0.000000 0.000000 0.746308 -0.816155 7.098098 0.204495 0.006198 0.845121 0.149010 -0.413891 1.786658 0.000000 0.000000 0.000000 0.353785 -0.244396 5.466748 0.502486 -0.300036 1.205506 -1.405296 -1.622105 3.815911 2.294636 -1.012729 -7.507807 0.000000 0.000000 0.000000 -23.435808 5.155699 -5.657231 -48.521933 -1.969166 -4.881843 -4.162140 -20.969831 1.507080 0.000000 0.000000 0.000000 21.587567 -4.617358 -4.382527 53.172779 1.093744 -4.727088 1.663805 21.320854 1.027507 0.000000 0.000000 0.000000 
-0.000979 0.950432 -0.001037 -0.240785 4.806260 -4.006528 1.843269 0.618175 9.632135 0.727395 -0.001757 -1.779225 -1.001929 -0.381630 3.145056 0.000000 0.000000 0.000000 0.768945 -0.784760 6.830208 0.105811 0.028254 1.109432 0.150280 -0.325602 1.584271 0.000000 0.000000 0.000000 0.177952 -0.252971 5.805736 0.625808 -0.357950 1.138178 -1.595325 -1.722569 3.600997 2.455613 -1.156736 -7.290506 0.000000 0.000000 0.000000 -23.899956 4.976843 -5.612949 -47.881969 -1.867896 -4.837682 -4.656428 -21.541246 1.643894 0.000000 0.000000 0.000000 21.504375 -4.685508 -4.449115 53.089233 0.884772 -4.781188 1.860425 21.608381 1.068090 0.000000 0.000000 0.000000 
-0.001328 0.950222 -0.000877 -0.374725 4.489760 -4.044414 1.749469 0.612969 9.302070 1.213683 -0.060210 -1.443809 -0.908110 -0.378901 2.815180 0.000000 0.000000 0.000000 0.873926 -0.742890 6.440854 0.148823 0.044319 1.706841 0.062616 -0.323987 1.068400 0.000000 0.000000 0.000000 0.190765 -0.271372 6.196914 0.636709 -0.371185 1.307323 -1.581680 -1.606622 3.437982 2.569612 -1.333204 -6.454362 0.000000 0.000000 0.000000 -24.111553 5.009798 -5.663084 -47.565563 -2.464536 -4.564632 -5.279490 -21.810025 1.782416 0.000000 0.000000 0.000000 21.517100 -4.864473 -4.569213 53.141539 0.998011 -4.719270 1.895613 22.183082 1.102367 0.000000 0.000000 0.000000 
-0.001521 0.950019 -0.000503 -0.537732 3.963191 -4.077115 1.731751 0.628484 9.353511 1.337897 -0.076534 -1.365017 -0.518017 0.310607 2.678285 0.000000 0.000000 0.000000 0.984332 -0.705116 6.095975 0.275671 0.043308 2.142904 0.077276 -0.142520 0.734723 0.000000 0.000000 0.000000 0.281391 -0.283932 6.395973 0.588761 -0.360948 1.625665 -1.570922 -1.259747 3.350010 2.550948 -1.359853 -6.039381 0.000000 0.000000 0.000000 -23.714874 4.802261 -5.497149 -47.935589 -2.984682 -4.390886 -5.268403 -21.434338 1.743648 0.000000 0.000000 0.000000 21.775175 -4.996479 -4.662776 53.094527 1.272665 -4.594004 1.844395 22.635693 1.121628 0.000000 0.000000 0.000000 
-0.001565 0.949454 0.000233 -0.651316 3.652093 -4.068919 1.912856 0.614159 9.289726 1.187267 -0.070229 -1.206331 -0.059830 0.945202 2.120632 0.000000 0.000000 0.000000 1.277842 -0.666968 5.645717 0.067336 0.091024 2.669442 0.053164 0.192051 -0.112594 0.000000 0.000000 0.000000 0.334756 -0.301664 6.726440 0.657883 -0.396531 1.665720 -1.729344 -0.788759 3.248116 2.727448 -1.554986 -5.310050 0.000000 0.000000 0.000000 -23.509104 4.665029 -5.487001 -48.049100 -3.242442 -4.266087 -5.214547 -21.189939 1.695556 0.000000 0.000000 0.000000 21.707947 -5.019467 -4.572238 53.492481 1.390477 -4.586495 1.582227 23.262022 1.126212 0.000000 0.000000 0.000000 
-0.001420 0.949177 0.001446 -0.730483 3.366363 -4.102887 1.844043 0.610127 9.048006 1.069782 -0.081031 -0.718890 0.085681 1.093150 1.831603 0.000000 0.000000 0.000000 1.411828 -0.642552 5.392822 0.153130 0.099398 3.228427 0.026708 0.348568 -0.573954 0.000000 0.000000 0.000000 0.492570 -0.326793 7.089384 0.671543 -0.403648 1.697074 -1.758980 -0.633979 3.133428 2.708551 -1.606389 -4.741880 0.000000 0.000000 0.000000 -23.191258 4.602592 -5.402752 -48.501735 -3.191862 -4.321055 -4.826726 -21.062875 1.612069 0.000000 0.000000 0.000000 21.932354 -4.885031 -4.524433 53.473979 1.624065 -4.477903 1.545642 23.241980 1.118045 0.000000 0.000000 0.000000 
-0.001275 0.948833 0.003506 -0.792966 3.524899 -4.021901 2.046420 0.587551 9.028700 1.029359 -0.091992 -0.370123 -0.080074 0.463486 1.231413 0.000000 0.000000 0.000000 1.601874 -0.620468 5.115615 0.221075 0.101089 3.576453 -0.341781 -0.257853 -1.343526 0.000000 0.000000 0.000000 0.403723 -0.335498 7.347109 0.718268 -0.429194 1.719016 -1.442447 -0.679429 3.329014 2.413944 -1.455222 -4.190995 0.000000 0.000000 0.000000 -23.185160 4.831679 -5.512691 -48.473681 -3.048418 -4.396020 -4.922453 -21.179412 1.643262 0.000000 0.000000 0.000000 22.151384 -4.717263 -4.466013 53.142201 1.498063 -4.523676 1.717183 23.781494 1.179520 0.000000 0.000000 0.000000 
-0.001290 0.948335 0.006847 -0.679942 3.638804 -4.018543 1.821008 0.605204 9.026307 1.306629 -0.131886 -0.120821 -0.257052 -0.107794 0.825593 0.000000 0.000000 0.000000 1.762951 -0.599984 4.877319 0.194228 0.131267 4.357168 -0.733105 -1.061196 -1.883619 0.000000 0.000000 0.000000 0.251565 -0.333321 7.475385 0.952057 -0.566283 2.059145 -1.550842 -0.685196 3.312829 2.151251 -1.327234 -3.549089 0.000000 0.000000 0.000000 -22.832527 4.829518 -5.462448 -48.755290 -3.059579 -4.415906 -4.800901 -21.237439 1.622567 0.000000 0.000000 0.000000 22.134312 -4.484890 -4.314136 53.264257 1.663459 -4.464709 1.605270 24.010804 1.173957 0.000000 0.000000 0.000000 
